<svg xmlns:dc="http://purl.org/dc/elements/1.1/" xmlns:cc="http://creativecommons.org/ns#" xmlns:rdf="http://www.w3.org/1999/02/22-rdf-syntax-ns#" xmlns:svg="http://www.w3.org/2000/svg" xmlns="http://www.w3.org/2000/svg" xmlns:sodipodi="http://sodipodi.sourceforge.net/DTD/sodipodi-0.dtd" xmlns:inkscape="http://www.inkscape.org/namespaces/inkscape" version="1.1" x="0px" y="0px" width="595.28px" height="841.89px" viewBox="0 0 595.28 841.89" enable-background="new 0 0 595.28 841.89" id="SJXgPVdwAPM" sodipodi:docname="an.svg" inkscape:version="0.92.2 (5c3e80d, 2017-08-06)" xmlns:xlink="http://www.w3.org/1999/xlink" xmlns:svgjs="http://svgjs.com/svgjs">
    <style type="text/css">
        @-webkit-keyframes BkDeDNOvAvG_ByOuzuRDM_Animation{82.22%{-webkit-transform:  scale(1, 1);transform:  scale(1, 1);transform-box:  fill-box;-webkit-transform-origin:  50% 50%;transform-origin:  50% 50%;}84.44%{-webkit-transform:  scale(1.2, 1.2);transform:  scale(1.2, 1.2);transform-box:  fill-box;-webkit-transform-origin:  50% 50%;transform-origin:  50% 50%;}86.67%{-webkit-transform:  scale(1, 1);transform:  scale(1, 1);transform-box:  fill-box;-webkit-transform-origin:  50% 50%;transform-origin:  50% 50%;}88.89%{-webkit-transform:  scale(1.3, 1.3);transform:  scale(1.3, 1.3);transform-box:  fill-box;-webkit-transform-origin:  50% 50%;transform-origin:  50% 50%;}0%{-webkit-transform:  scale(1, 1);transform:  scale(1, 1);transform-box:  fill-box;-webkit-transform-origin:  50% 50%;transform-origin:  50% 50%;}100%{-webkit-transform:  scale(1.3, 1.3);transform:  scale(1.3, 1.3);transform-box:  fill-box;-webkit-transform-origin:  50% 50%;transform-origin:  50% 50%;}}@keyframes BkDeDNOvAvG_ByOuzuRDM_Animation{82.22%{-webkit-transform:  scale(1, 1);transform:  scale(1, 1);transform-box:  fill-box;-webkit-transform-origin:  50% 50%;transform-origin:  50% 50%;}84.44%{-webkit-transform:  scale(1.2, 1.2);transform:  scale(1.2, 1.2);transform-box:  fill-box;-webkit-transform-origin:  50% 50%;transform-origin:  50% 50%;}86.67%{-webkit-transform:  scale(1, 1);transform:  scale(1, 1);transform-box:  fill-box;-webkit-transform-origin:  50% 50%;transform-origin:  50% 50%;}88.89%{-webkit-transform:  scale(1.3, 1.3);transform:  scale(1.3, 1.3);transform-box:  fill-box;-webkit-transform-origin:  50% 50%;transform-origin:  50% 50%;}0%{-webkit-transform:  scale(1, 1);transform:  scale(1, 1);transform-box:  fill-box;-webkit-transform-origin:  50% 50%;transform-origin:  50% 50%;}100%{-webkit-transform:  scale(1.3, 1.3);transform:  scale(1.3, 1.3);transform-box:  fill-box;-webkit-transform-origin:  50% 50%;transform-origin:  50% 50%;}}@-webkit-keyframes SyFgP4ODRvM_Animation{70%{opacity:  1;transform-box:  fill-box;-webkit-transform-origin:  50% 50%;transform-origin:  50% 50%;}73.33%{opacity:  0.5;transform-box:  fill-box;-webkit-transform-origin:  50% 50%;transform-origin:  50% 50%;}76.67%{opacity:  0;transform-box:  fill-box;-webkit-transform-origin:  50% 50%;transform-origin:  50% 50%;}80%{opacity:  1;transform-box:  fill-box;-webkit-transform-origin:  50% 50%;transform-origin:  50% 50%;}0%{opacity:  1;transform-box:  fill-box;-webkit-transform-origin:  50% 50%;transform-origin:  50% 50%;}100%{opacity:  1;transform-box:  fill-box;-webkit-transform-origin:  50% 50%;transform-origin:  50% 50%;}}@keyframes SyFgP4ODRvM_Animation{70%{opacity:  1;transform-box:  fill-box;-webkit-transform-origin:  50% 50%;transform-origin:  50% 50%;}73.33%{opacity:  0.5;transform-box:  fill-box;-webkit-transform-origin:  50% 50%;transform-origin:  50% 50%;}76.67%{opacity:  0;transform-box:  fill-box;-webkit-transform-origin:  50% 50%;transform-origin:  50% 50%;}80%{opacity:  1;transform-box:  fill-box;-webkit-transform-origin:  50% 50%;transform-origin:  50% 50%;}0%{opacity:  1;transform-box:  fill-box;-webkit-transform-origin:  50% 50%;transform-origin:  50% 50%;}100%{opacity:  1;transform-box:  fill-box;-webkit-transform-origin:  50% 50%;transform-origin:  50% 50%;}}@-webkit-keyframes SJ6ew4uD0wf_Animation{33.33%{opacity:  1;transform-box:  fill-box;-webkit-transform-origin:  50% 50%;transform-origin:  50% 50%;}61.11%{opacity:  1;transform-box:  fill-box;-webkit-transform-origin:  50% 50%;transform-origin:  50% 50%;}63.33%{opacity:  0.5;transform-box:  fill-box;-webkit-transform-origin:  50% 50%;transform-origin:  50% 50%;}65.56%{opacity:  0;transform-box:  fill-box;-webkit-transform-origin:  50% 50%;transform-origin:  50% 50%;}67.78%{opacity:  1;transform-box:  fill-box;-webkit-transform-origin:  50% 50%;transform-origin:  50% 50%;}0%{opacity:  1;transform-box:  fill-box;-webkit-transform-origin:  50% 50%;transform-origin:  50% 50%;}100%{opacity:  1;transform-box:  fill-box;-webkit-transform-origin:  50% 50%;transform-origin:  50% 50%;}}@keyframes SJ6ew4uD0wf_Animation{33.33%{opacity:  1;transform-box:  fill-box;-webkit-transform-origin:  50% 50%;transform-origin:  50% 50%;}61.11%{opacity:  1;transform-box:  fill-box;-webkit-transform-origin:  50% 50%;transform-origin:  50% 50%;}63.33%{opacity:  0.5;transform-box:  fill-box;-webkit-transform-origin:  50% 50%;transform-origin:  50% 50%;}65.56%{opacity:  0;transform-box:  fill-box;-webkit-transform-origin:  50% 50%;transform-origin:  50% 50%;}67.78%{opacity:  1;transform-box:  fill-box;-webkit-transform-origin:  50% 50%;transform-origin:  50% 50%;}0%{opacity:  1;transform-box:  fill-box;-webkit-transform-origin:  50% 50%;transform-origin:  50% 50%;}100%{opacity:  1;transform-box:  fill-box;-webkit-transform-origin:  50% 50%;transform-origin:  50% 50%;}}@-webkit-keyframes HJ3lPVOPRwf_Animation{51.11%{opacity:  1;transform-box:  fill-box;-webkit-transform-origin:  50% 50%;transform-origin:  50% 50%;}53.33%{opacity:  0.5;transform-box:  fill-box;-webkit-transform-origin:  50% 50%;transform-origin:  50% 50%;}55.56%{opacity:  0;transform-box:  fill-box;-webkit-transform-origin:  50% 50%;transform-origin:  50% 50%;}58.89%{opacity:  1;transform-box:  fill-box;-webkit-transform-origin:  50% 50%;transform-origin:  50% 50%;}0%{opacity:  1;transform-box:  fill-box;-webkit-transform-origin:  50% 50%;transform-origin:  50% 50%;}100%{opacity:  1;transform-box:  fill-box;-webkit-transform-origin:  50% 50%;transform-origin:  50% 50%;}}@keyframes HJ3lPVOPRwf_Animation{51.11%{opacity:  1;transform-box:  fill-box;-webkit-transform-origin:  50% 50%;transform-origin:  50% 50%;}53.33%{opacity:  0.5;transform-box:  fill-box;-webkit-transform-origin:  50% 50%;transform-origin:  50% 50%;}55.56%{opacity:  0;transform-box:  fill-box;-webkit-transform-origin:  50% 50%;transform-origin:  50% 50%;}58.89%{opacity:  1;transform-box:  fill-box;-webkit-transform-origin:  50% 50%;transform-origin:  50% 50%;}0%{opacity:  1;transform-box:  fill-box;-webkit-transform-origin:  50% 50%;transform-origin:  50% 50%;}100%{opacity:  1;transform-box:  fill-box;-webkit-transform-origin:  50% 50%;transform-origin:  50% 50%;}}@-webkit-keyframes BJilvN_wRDG_Animation{37.78%{opacity:  1;transform-box:  fill-box;-webkit-transform-origin:  50% 50%;transform-origin:  50% 50%;}41.11%{opacity:  0.5;transform-box:  fill-box;-webkit-transform-origin:  50% 50%;transform-origin:  50% 50%;}44.44%{opacity:  0;transform-box:  fill-box;-webkit-transform-origin:  50% 50%;transform-origin:  50% 50%;}47.78%{opacity:  1;transform-box:  fill-box;-webkit-transform-origin:  50% 50%;transform-origin:  50% 50%;}0%{opacity:  1;transform-box:  fill-box;-webkit-transform-origin:  50% 50%;transform-origin:  50% 50%;}100%{opacity:  1;transform-box:  fill-box;-webkit-transform-origin:  50% 50%;transform-origin:  50% 50%;}}@keyframes BJilvN_wRDG_Animation{37.78%{opacity:  1;transform-box:  fill-box;-webkit-transform-origin:  50% 50%;transform-origin:  50% 50%;}41.11%{opacity:  0.5;transform-box:  fill-box;-webkit-transform-origin:  50% 50%;transform-origin:  50% 50%;}44.44%{opacity:  0;transform-box:  fill-box;-webkit-transform-origin:  50% 50%;transform-origin:  50% 50%;}47.78%{opacity:  1;transform-box:  fill-box;-webkit-transform-origin:  50% 50%;transform-origin:  50% 50%;}0%{opacity:  1;transform-box:  fill-box;-webkit-transform-origin:  50% 50%;transform-origin:  50% 50%;}100%{opacity:  1;transform-box:  fill-box;-webkit-transform-origin:  50% 50%;transform-origin:  50% 50%;}}@-webkit-keyframes S1dePE_vRvf_Animation{25.56%{opacity:  1;transform-box:  fill-box;-webkit-transform-origin:  50% 50%;transform-origin:  50% 50%;}28.89%{opacity:  0.5;transform-box:  fill-box;-webkit-transform-origin:  50% 50%;transform-origin:  50% 50%;}32.22%{opacity:  0;transform-box:  fill-box;-webkit-transform-origin:  50% 50%;transform-origin:  50% 50%;}35.56%{opacity:  1;transform-box:  fill-box;-webkit-transform-origin:  50% 50%;transform-origin:  50% 50%;}0%{opacity:  1;transform-box:  fill-box;-webkit-transform-origin:  50% 50%;transform-origin:  50% 50%;}100%{opacity:  1;transform-box:  fill-box;-webkit-transform-origin:  50% 50%;transform-origin:  50% 50%;}}@keyframes S1dePE_vRvf_Animation{25.56%{opacity:  1;transform-box:  fill-box;-webkit-transform-origin:  50% 50%;transform-origin:  50% 50%;}28.89%{opacity:  0.5;transform-box:  fill-box;-webkit-transform-origin:  50% 50%;transform-origin:  50% 50%;}32.22%{opacity:  0;transform-box:  fill-box;-webkit-transform-origin:  50% 50%;transform-origin:  50% 50%;}35.56%{opacity:  1;transform-box:  fill-box;-webkit-transform-origin:  50% 50%;transform-origin:  50% 50%;}0%{opacity:  1;transform-box:  fill-box;-webkit-transform-origin:  50% 50%;transform-origin:  50% 50%;}100%{opacity:  1;transform-box:  fill-box;-webkit-transform-origin:  50% 50%;transform-origin:  50% 50%;}}@-webkit-keyframes Bk5lPNuPADz_Animation{14.44%{opacity:  1;transform-box:  fill-box;-webkit-transform-origin:  50% 50%;transform-origin:  50% 50%;}16.67%{opacity:  0.5;transform-box:  fill-box;-webkit-transform-origin:  50% 50%;transform-origin:  50% 50%;}18.89%{opacity:  0;transform-box:  fill-box;-webkit-transform-origin:  50% 50%;transform-origin:  50% 50%;}21.11%{opacity:  0;transform-box:  fill-box;-webkit-transform-origin:  50% 50%;transform-origin:  50% 50%;}22.22%{opacity:  1;transform-box:  fill-box;-webkit-transform-origin:  50% 50%;transform-origin:  50% 50%;}0%{opacity:  1;transform-box:  fill-box;-webkit-transform-origin:  50% 50%;transform-origin:  50% 50%;}100%{opacity:  1;transform-box:  fill-box;-webkit-transform-origin:  50% 50%;transform-origin:  50% 50%;}}@keyframes Bk5lPNuPADz_Animation{14.44%{opacity:  1;transform-box:  fill-box;-webkit-transform-origin:  50% 50%;transform-origin:  50% 50%;}16.67%{opacity:  0.5;transform-box:  fill-box;-webkit-transform-origin:  50% 50%;transform-origin:  50% 50%;}18.89%{opacity:  0;transform-box:  fill-box;-webkit-transform-origin:  50% 50%;transform-origin:  50% 50%;}21.11%{opacity:  0;transform-box:  fill-box;-webkit-transform-origin:  50% 50%;transform-origin:  50% 50%;}22.22%{opacity:  1;transform-box:  fill-box;-webkit-transform-origin:  50% 50%;transform-origin:  50% 50%;}0%{opacity:  1;transform-box:  fill-box;-webkit-transform-origin:  50% 50%;transform-origin:  50% 50%;}100%{opacity:  1;transform-box:  fill-box;-webkit-transform-origin:  50% 50%;transform-origin:  50% 50%;}}@-webkit-keyframes SklZwE_v0wG_By5l1uCwz_Animation{22.22%{-webkit-transform:  rotate(0deg);transform:  rotate(0deg);transform-box:  fill-box;-webkit-transform-origin:  50% 50%;transform-origin:  50% 50%;}25.56%{-webkit-transform:  rotate(3600deg);transform:  rotate(3600deg);transform-box:  fill-box;-webkit-transform-origin:  50% 50%;transform-origin:  50% 50%;}27.78%{-webkit-transform:  rotate(0deg);transform:  rotate(0deg);transform-box:  fill-box;-webkit-transform-origin:  50% 50%;transform-origin:  50% 50%;}0%{-webkit-transform:  rotate(0deg);transform:  rotate(0deg);transform-box:  fill-box;-webkit-transform-origin:  50% 50%;transform-origin:  50% 50%;}100%{-webkit-transform:  rotate(0deg);transform:  rotate(0deg);transform-box:  fill-box;-webkit-transform-origin:  50% 50%;transform-origin:  50% 50%;}}@keyframes SklZwE_v0wG_By5l1uCwz_Animation{22.22%{-webkit-transform:  rotate(0deg);transform:  rotate(0deg);transform-box:  fill-box;-webkit-transform-origin:  50% 50%;transform-origin:  50% 50%;}25.56%{-webkit-transform:  rotate(3600deg);transform:  rotate(3600deg);transform-box:  fill-box;-webkit-transform-origin:  50% 50%;transform-origin:  50% 50%;}27.78%{-webkit-transform:  rotate(0deg);transform:  rotate(0deg);transform-box:  fill-box;-webkit-transform-origin:  50% 50%;transform-origin:  50% 50%;}0%{-webkit-transform:  rotate(0deg);transform:  rotate(0deg);transform-box:  fill-box;-webkit-transform-origin:  50% 50%;transform-origin:  50% 50%;}100%{-webkit-transform:  rotate(0deg);transform:  rotate(0deg);transform-box:  fill-box;-webkit-transform-origin:  50% 50%;transform-origin:  50% 50%;}}@-webkit-keyframes Sk0eP4uwRPz_HygmydCvG_Animation{0%{-webkit-transform:  translate(0px, -200px);transform:  translate(0px, -200px);transform-box:  fill-box;-webkit-transform-origin:  50% 50%;transform-origin:  50% 50%;}7.78%{-webkit-transform:  translate(0px, 0px);transform:  translate(0px, 0px);transform-box:  fill-box;-webkit-transform-origin:  50% 50%;transform-origin:  50% 50%;}100%{-webkit-transform:  translate(0px, 0px);transform:  translate(0px, 0px);transform-box:  fill-box;-webkit-transform-origin:  50% 50%;transform-origin:  50% 50%;}}@keyframes Sk0eP4uwRPz_HygmydCvG_Animation{0%{-webkit-transform:  translate(0px, -200px);transform:  translate(0px, -200px);transform-box:  fill-box;-webkit-transform-origin:  50% 50%;transform-origin:  50% 50%;}7.78%{-webkit-transform:  translate(0px, 0px);transform:  translate(0px, 0px);transform-box:  fill-box;-webkit-transform-origin:  50% 50%;transform-origin:  50% 50%;}100%{-webkit-transform:  translate(0px, 0px);transform:  translate(0px, 0px);transform-box:  fill-box;-webkit-transform-origin:  50% 50%;transform-origin:  50% 50%;}}#SJXgPVdwAPM *{-webkit-animation-duration:  3s;animation-duration:  3s;-webkit-animation-iteration-count:  infinite;animation-iteration-count:  infinite;-webkit-animation-timing-function:  cubic-bezier(0, 0, 1, 1);animation-timing-function:  cubic-bezier(0, 0, 1, 1);}#S1HxwEdvRvM{-webkit-transform:  translate(669.11408,4.7120707px);transform:  translate(669.11408,4.7120707px);}#ByUgDEuwCPf{clip-rule: evenodd;fill-rule: evenodd;visibility:  hidden;}#S1dePE_vRvf{fill: #d86161;-webkit-animation-name:  S1dePE_vRvf_Animation;animation-name:  S1dePE_vRvf_Animation;}#SyFgP4ODRvM{fill: #666462;-webkit-animation-name:  SyFgP4ODRvM_Animation;animation-name:  SyFgP4ODRvM_Animation;}#Bk5lPNuPADz{fill: #d86161;-webkit-animation-name:  Bk5lPNuPADz_Animation;animation-name:  Bk5lPNuPADz_Animation;}#BJilvN_wRDG{fill: #666462;-webkit-animation-name:  BJilvN_wRDG_Animation;animation-name:  BJilvN_wRDG_Animation;}#HJ3lPVOPRwf{fill: #666462;-webkit-animation-name:  HJ3lPVOPRwf_Animation;animation-name:  HJ3lPVOPRwf_Animation;}#SJ6ew4uD0wf{fill: #666462;-webkit-animation-name:  SJ6ew4uD0wf_Animation;animation-name:  SJ6ew4uD0wf_Animation;}#Sk0eP4uwRPz{fill: #d86161;}#SklZwE_v0wG{fill: #d86161;}#BJWWvVuDRwM{fill: #d86161;}#HJG-PEuDAvG{fill: #d86161;}#SyQWv4OvCPf{fill: #d86161;}#B1EZDNOv0vf{fill: #666462;}#SJHZDEuPRDf{fill: #666462;}#B1IZPEuDCwG{fill: #666462;}#SkP-wEuvRvM{fill: #666462;}#rkObDNuP0wG{fill: #666462;}#H1FbwEOPRvz{fill: #666462;}#r15-v4_PRvG{-webkit-transform:  matrix(1,0,0,1,252.79,583.999);transform:  matrix(1,0,0,1,252.79,583.999);fill: #666462;}#Sk0eP4uwRPz_HygmydCvG{-webkit-animation-name:  Sk0eP4uwRPz_HygmydCvG_Animation;animation-name:  Sk0eP4uwRPz_HygmydCvG_Animation;}#SklZwE_v0wG_By5l1uCwz{-webkit-animation-name:  SklZwE_v0wG_By5l1uCwz_Animation;animation-name:  SklZwE_v0wG_By5l1uCwz_Animation;}#BkDeDNOvAvG_ByOuzuRDM{-webkit-animation-name:  BkDeDNOvAvG_ByOuzuRDM_Animation;animation-name:  BkDeDNOvAvG_ByOuzuRDM_Animation;}
    </style>
    <metadata id="metadata116">
        <rdf:rdf>
            <cc:work rdf:about="">
                <dc:format>
                    image/svg+xml
                </dc:format>
                <dc:type rdf:resource="http://purl.org/dc/dcmitype/StillImage"/>
                <dc:title/>
            </cc:work>
        </rdf:rdf>
    </metadata>
    <sodipodi:namedview pagecolor="#ffffff" bordercolor="#666666" borderopacity="1" objecttolerance="10" gridtolerance="10" guidetolerance="10" inkscape:pageopacity="0" inkscape:pageshadow="2" inkscape:window-width="1366" inkscape:window-height="705" id="SyVgD4dPRwz" showgrid="false" inkscape:zoom="0.63666274" inkscape:cx="297.64001" inkscape:cy="420.94501" inkscape:window-x="-8" inkscape:window-y="-8" inkscape:window-maximized="1" inkscape:current-layer="svg110" class=""/>
    <g id="S1HxwEdvRvM">
        <rect x="65" y="152" width="458" height="503" id="ByUgDEuwCPf"/>
    </g>
    <g id="BkDeDNOvAvG_ByOuzuRDM" data-animator-group="true" data-animator-type="2">
        <g id="BkDeDNOvAvG">
            <path fill-rule="evenodd" clip-rule="evenodd" d="M302.202,195.085c28.755,17.237,57.462,34.558,86.314,51.626   c4.853,2.871,6.874,6.322,6.84,11.972c-0.213,36.012-0.271,72.025-0.104,108.038c0.03,6.272-1.431,10.593-7.623,13.321   c-5.835,2.571-11.188,6.243-17.7,9.973c-0.645-2.679-1.493-4.564-1.494-6.449c-0.015-31.69,0.076-63.381,0.142-95.072   c0.055-25.667,2.963-18.995-18.252-31.642c-23.27-13.874-46.563-27.707-69.815-41.612c-1.924-1.15-3.604-2.709-6.39-4.835   c9.133-5.488,17.313-10.404,25.494-15.32C300.476,195.085,301.339,195.085,302.202,195.085z" id="S1dePE_vRvf"/>
            <path fill-rule="evenodd" clip-rule="evenodd" d="M165.022,316.735c1.987-1.843,3.713-4.139,6.002-5.462   c29.57-17.093,59.174-34.13,88.945-50.869c2.238-1.259,6.254-1.07,8.684,0.067c5.609,2.627,10.791,6.19,16.073,9.493   c4.879,3.051,4.769,4.377-0.421,7.321c-26.163,14.84-52.058,30.187-78.626,44.262c-10.688,5.662-14.635,12.018-14.144,24.492   c1.215,30.769,0.438,61.616,0.377,92.432c-0.005,2.499-0.64,4.999-1.306,9.874c-9.378-6.497-17.481-12.11-25.585-17.727   C165.022,392.658,165.022,354.697,165.022,316.735z" id="SyFgP4ODRvM"/>
            <path fill-rule="evenodd" clip-rule="evenodd" d="M298.319,512.152c-30.239-18.041-60.403-36.211-90.786-54.004   c-5.624-3.295-8.274-6.801-8.186-13.656c0.447-34.483,0.446-68.975,0.347-103.462c-0.013-4.571,1.633-7.173,5.469-9.165   c6.003-3.117,11.864-6.509,18.965-10.438c0.289,4.297,0.655,7.183,0.651,10.069c-0.054,32.766-0.038,65.532-0.381,98.295   c-0.058,5.565,2.806,8.045,6.913,10.446c30.061,17.57,60.078,35.215,90.098,52.854c1.44,0.846,2.795,1.834,5.604,3.693   c-8.861,5.486-16.837,10.426-24.811,15.367C300.907,512.152,299.614,512.152,298.319,512.152z" id="Bk5lPNuPADz"/>
            <path fill-rule="evenodd" clip-rule="evenodd" d="M165.022,275.322c1.754-1.813,3.208-4.144,5.309-5.359   c29.564-17.114,59.249-34.022,88.813-51.138c4.27-2.473,7.843-2.299,11.967,0.198c28.117,17.027,56.278,33.981,84.521,50.796   c3.567,2.123,5.238,4.565,5.124,8.745c-0.221,7.902-0.064,15.813-0.064,25.049c-3.385-1.366-5.573-1.94-7.442-3.05   c-27.721-16.444-55.46-32.861-83.031-49.553c-4.661-2.821-8.257-2.812-12.935-0.08c-28.379,16.58-56.915,32.892-85.416,49.263   c-2.271,1.305-4.731,3.746-6.844-0.283C165.022,291.714,165.022,283.518,165.022,275.322z" id="BJilvN_wRDG"/>
            <path fill-rule="evenodd" clip-rule="evenodd" d="M405.152,256.405c8.638,5.647,16.365,10.397,23.658,15.738   c1.378,1.009,1.436,4.372,1.425,6.644c-0.17,32.11-0.461,64.222-0.707,96.333c-0.025,3.447-0.494,7.013,0.204,10.319   c1.969,9.289-1.646,14.454-9.984,18.917c-25.188,13.479-50.01,27.664-74.702,42.045c-5.861,3.413-10.356,3.391-15.706-0.393   c-5.395-3.813-11.218-7.02-17.862-11.115c2.723-2.051,4.525-3.738,6.611-4.929c26.322-15.004,52.631-30.029,79.074-44.813   c5.815-3.251,7.004-7.986,6.977-13.996c-0.159-36.414-0.162-72.827-0.179-109.241C403.961,260.876,404.392,259.84,405.152,256.405z   " id="HJ3lPVOPRwf"/>
            <path fill-rule="evenodd" clip-rule="evenodd" d="M430.074,408.565c0,9.908,0.429,17.879-0.243,25.759   c-0.225,2.642-2.69,6.021-5.09,7.408c-28.096,16.262-56.343,32.264-84.679,48.1c-1.777,0.992-5.146,0.896-6.93-0.141   c-31.591-18.395-63.067-36.986-94.493-55.663c-1.632-0.97-3.61-3.05-3.676-4.685c-0.36-8.934-0.171-17.891-0.171-28.14   c3.182,1.431,5.126,2.095,6.86,3.116c30.402,17.877,60.817,35.734,91.107,53.801c3.299,1.967,5.65,1.693,8.753-0.065   c26.931-15.272,53.934-30.42,80.925-45.588C424.232,411.46,426.102,410.588,430.074,408.565z" id="SJ6ew4uD0wf"/>
            <g id="Sk0eP4uwRPz_HygmydCvG" data-animator-group="true" data-animator-type="0">
                <polygon fill-rule="evenodd" clip-rule="evenodd" points="224.128,321.428 297.641,369.155 360.761,321.428    360.761,345.292 297.641,391.058 224.128,344.408  " id="Sk0eP4uwRPz"/>
            </g>
            <g id="SyJbw4dP0Dz">
                <g id="SklZwE_v0wG_By5l1uCwz" data-animator-group="true" data-animator-type="1">
                    <path d="M170.229,526.962l16.914,31.687l16.737-31.687l4.229,38.962h-3.901l-2.844-26.126l-14.271,27.058    l-14.397-27.108l-2.768,26.177H166L170.229,526.962z" id="SklZwE_v0wG"/>
                </g>
                <path d="M229.115,526.533l16.788,39.391h-4.279l-12.509-29.901l-12.635,29.901h-4.279L229.115,526.533z" id="BJWWvVuDRwM"/>
                <path d="M251.852,531.643H241.81v-3.347h23.961v3.347h-9.992v34.281h-3.926V531.643z" id="HJG-PEuDAvG"/>
                <path d="M272.264,565.924h-3.926v-37.628h3.926V565.924z M292.475,528.296h3.926v37.628h-3.926V528.296z     M269.323,549.009v-3.927h20.088v3.927H269.323z" id="SyQWv4OvCPf"/>
                <path d="M306.474,565.924h-3.927v-37.628h13.414c1.208,0,2.379,0.092,3.512,0.276s2.178,0.521,3.133,1.007    c1.797,0.889,3.252,2.219,4.368,3.99c1.116,1.77,1.673,3.847,1.673,6.229c0,1.712-0.27,3.264-0.806,4.655    c-0.537,1.394-1.224,2.59-2.063,3.588c-0.839,0.998-1.79,1.778-2.856,2.34c-1.065,0.563-2.136,0.895-3.209,0.994    c1.595,2.451,3.162,4.879,4.706,7.286c1.543,2.409,3.087,4.829,4.631,7.263h-4.681c-1.51-2.367-3.016-4.736-4.519-7.111    c-1.5-2.374-3.007-4.76-4.517-7.159v-3.349c1.142,0,2.047-0.021,2.718-0.063c0.672-0.042,1.4-0.18,2.189-0.415    c0.653-0.201,1.254-0.555,1.801-1.058c0.545-0.504,1.015-1.104,1.409-1.8c0.394-0.696,0.704-1.483,0.931-2.366    c0.227-0.88,0.339-1.782,0.339-2.705c0-1.762-0.335-3.242-1.007-4.442c-0.671-1.199-1.586-2.127-2.741-2.782    c-0.69-0.368-1.457-0.632-2.305-0.792c-0.847-0.158-1.748-0.239-2.706-0.239h-9.487V565.924z" id="B1EZDNOv0vf"/>
                <path d="M334.041,528.296h3.926v37.628h-3.926V528.296z" id="SJHZDEuPRDf"/>
                <path d="M354.108,546.845l-11.301-18.549h4.48l9.389,15.102l9.085-15.102h4.43l-11.25,18.7l11.553,18.928h-4.631    l-9.388-15.354l-9.238,15.354h-4.631L354.108,546.845z" id="B1IZPEuDCwG"/>
                <path d="M378.745,529.227l-3.523,11.226h-2.97l2.794-11.226H378.745z" id="SkP-wEuvRvM"/>
                <path d="M389.679,531.643h-5.059v-3.347h8.961v37.628h-3.902V531.643z" id="rkObDNuP0wG"/>
                <path xmlns="http://www.w3.org/2000/svg" fill="#666462" d="M405.29,562.02c1.116,0.118,2.408,0,4.17-0.176c2.995-0.411,5.814-1.645,7.987-3.7    c2.525-2.29,4.346-5.639,5.051-10.16h-0.176c-2.115,2.584-5.168,4.111-8.986,4.111c-6.871,0-11.275-5.169-11.275-11.688    c0-7.225,5.227-13.567,13.037-13.567c7.812,0,12.627,6.343,12.627,16.093c0,8.398-2.818,14.271-6.577,17.912    c-2.937,2.878-6.989,4.641-11.101,5.11c-1.879,0.293-3.523,0.353-4.757,0.293V562.02z M407.17,540.055    c0,4.757,2.877,8.104,7.341,8.104c3.466,0,6.167-1.703,7.518-3.993c0.294-0.471,0.47-1.058,0.47-1.88    c0-6.52-2.408-11.512-7.811-11.512C410.282,530.775,407.17,534.652,407.17,540.055z"/>
            </g> 
            <!-- <text font-family="'Pasajero'" font-size="12" letter-spacing="1" id="r15-v4_PRvG">
                from epsilon to infinity
            </text> -->
        </g>
    </g>
    <defs id="defs114"/>
</svg>